<mxfile host="app.diagrams.net" modified="2020-11-25T13:41:23.711Z" agent="5.0 (Macintosh; Intel Mac OS X 11_0_0) AppleWebKit/537.36 (KHTML, like Gecko) Chrome/86.0.4240.198 Safari/537.36" etag="NVxY6bvZUQfrXJlBmvC0" version="13.10.2" type="github">
  <diagram id="R2lEEEUBdFMjLlhIrx00" name="Page-1">
    <mxGraphModel dx="2276" dy="696" grid="1" gridSize="10" guides="1" tooltips="1" connect="1" arrows="1" fold="1" page="1" pageScale="1" pageWidth="850" pageHeight="1100" math="0" shadow="0" extFonts="Permanent Marker^https://fonts.googleapis.com/css?family=Permanent+Marker">
      <root>
        <mxCell id="0" />
        <mxCell id="1" parent="0" />
        <mxCell id="oOxEvFH_zBwJxt1--HLs-2" value="supplier" style="rounded=0;whiteSpace=wrap;html=1;" parent="1" vertex="1">
          <mxGeometry x="200" y="750" width="100" height="40" as="geometry" />
        </mxCell>
        <mxCell id="oOxEvFH_zBwJxt1--HLs-12" value="goods" style="whiteSpace=wrap;html=1;align=center;" parent="1" vertex="1">
          <mxGeometry x="540" y="750" width="100" height="40" as="geometry" />
        </mxCell>
        <mxCell id="oOxEvFH_zBwJxt1--HLs-14" value="supplies" style="shape=rhombus;perimeter=rhombusPerimeter;whiteSpace=wrap;html=1;align=center;" parent="1" vertex="1">
          <mxGeometry x="365" y="740" width="120" height="60" as="geometry" />
        </mxCell>
        <mxCell id="oOxEvFH_zBwJxt1--HLs-15" value="" style="endArrow=none;html=1;rounded=0;exitX=1;exitY=0.5;exitDx=0;exitDy=0;entryX=0;entryY=0.5;entryDx=0;entryDy=0;" parent="1" source="oOxEvFH_zBwJxt1--HLs-2" target="oOxEvFH_zBwJxt1--HLs-14" edge="1">
          <mxGeometry relative="1" as="geometry">
            <mxPoint x="270" y="825" as="sourcePoint" />
            <mxPoint x="430" y="825" as="targetPoint" />
          </mxGeometry>
        </mxCell>
        <mxCell id="oOxEvFH_zBwJxt1--HLs-19" value="" style="edgeStyle=entityRelationEdgeStyle;fontSize=12;html=1;endArrow=ERmany;exitX=1;exitY=0.5;exitDx=0;exitDy=0;" parent="1" source="oOxEvFH_zBwJxt1--HLs-14" edge="1">
          <mxGeometry width="100" height="100" relative="1" as="geometry">
            <mxPoint x="410" y="930" as="sourcePoint" />
            <mxPoint x="540" y="770" as="targetPoint" />
          </mxGeometry>
        </mxCell>
        <mxCell id="oOxEvFH_zBwJxt1--HLs-24" value="name" style="ellipse;whiteSpace=wrap;html=1;align=center;" parent="1" vertex="1">
          <mxGeometry x="450" y="590" width="100" height="40" as="geometry" />
        </mxCell>
        <mxCell id="oOxEvFH_zBwJxt1--HLs-25" value="price" style="ellipse;whiteSpace=wrap;html=1;align=center;" parent="1" vertex="1">
          <mxGeometry x="425" y="640" width="100" height="40" as="geometry" />
        </mxCell>
        <mxCell id="oOxEvFH_zBwJxt1--HLs-26" value="category" style="whiteSpace=wrap;html=1;align=center;" parent="1" vertex="1">
          <mxGeometry x="865" y="750" width="90" height="40" as="geometry" />
        </mxCell>
        <mxCell id="oOxEvFH_zBwJxt1--HLs-31" value="inventory" style="shape=rhombus;perimeter=rhombusPerimeter;whiteSpace=wrap;html=1;align=center;" parent="1" vertex="1">
          <mxGeometry x="690" y="740" width="120" height="60" as="geometry" />
        </mxCell>
        <mxCell id="oOxEvFH_zBwJxt1--HLs-35" value="type" style="ellipse;whiteSpace=wrap;html=1;align=center;fontStyle=4" parent="1" vertex="1">
          <mxGeometry x="890" y="670" width="100" height="40" as="geometry" />
        </mxCell>
        <mxCell id="oOxEvFH_zBwJxt1--HLs-39" value="customer" style="whiteSpace=wrap;html=1;align=center;" parent="1" vertex="1">
          <mxGeometry x="180" y="1080" width="100" height="40" as="geometry" />
        </mxCell>
        <mxCell id="oOxEvFH_zBwJxt1--HLs-50" value="brithdate" style="ellipse;whiteSpace=wrap;html=1;align=center;" parent="1" vertex="1">
          <mxGeometry x="-10" y="1290" width="100" height="40" as="geometry" />
        </mxCell>
        <mxCell id="oOxEvFH_zBwJxt1--HLs-52" value="customer_id" style="ellipse;whiteSpace=wrap;html=1;align=center;fontStyle=4;" parent="1" vertex="1">
          <mxGeometry x="-10" y="1090" width="100" height="40" as="geometry" />
        </mxCell>
        <mxCell id="oOxEvFH_zBwJxt1--HLs-54" value="name" style="ellipse;whiteSpace=wrap;html=1;align=center;" parent="1" vertex="1">
          <mxGeometry x="-10" y="1140" width="100" height="40" as="geometry" />
        </mxCell>
        <mxCell id="oOxEvFH_zBwJxt1--HLs-56" value="address" style="ellipse;whiteSpace=wrap;html=1;align=center;" parent="1" vertex="1">
          <mxGeometry x="-10" y="1190" width="100" height="40" as="geometry" />
        </mxCell>
        <mxCell id="oOxEvFH_zBwJxt1--HLs-59" value="phone" style="ellipse;whiteSpace=wrap;html=1;align=center;" parent="1" vertex="1">
          <mxGeometry x="-10" y="1240" width="100" height="40" as="geometry" />
        </mxCell>
        <mxCell id="oOxEvFH_zBwJxt1--HLs-62" value="owns" style="shape=rhombus;perimeter=rhombusPerimeter;whiteSpace=wrap;html=1;align=center;" parent="1" vertex="1">
          <mxGeometry x="320" y="1070" width="120" height="60" as="geometry" />
        </mxCell>
        <mxCell id="oOxEvFH_zBwJxt1--HLs-65" value="shopping_cart" style="whiteSpace=wrap;html=1;align=center;" parent="1" vertex="1">
          <mxGeometry x="500" y="1080" width="100" height="40" as="geometry" />
        </mxCell>
        <mxCell id="oOxEvFH_zBwJxt1--HLs-66" value="" style="edgeStyle=entityRelationEdgeStyle;fontSize=12;html=1;endArrow=ERone;endFill=1;exitX=1;exitY=0.5;exitDx=0;exitDy=0;entryX=0;entryY=0.5;entryDx=0;entryDy=0;" parent="1" source="oOxEvFH_zBwJxt1--HLs-62" target="oOxEvFH_zBwJxt1--HLs-65" edge="1">
          <mxGeometry width="100" height="100" relative="1" as="geometry">
            <mxPoint x="520" y="1010" as="sourcePoint" />
            <mxPoint x="620" y="910" as="targetPoint" />
          </mxGeometry>
        </mxCell>
        <mxCell id="oOxEvFH_zBwJxt1--HLs-73" style="edgeStyle=orthogonalEdgeStyle;rounded=0;orthogonalLoop=1;jettySize=auto;html=1;entryX=0.5;entryY=1;entryDx=0;entryDy=0;" parent="1" source="oOxEvFH_zBwJxt1--HLs-68" target="oOxEvFH_zBwJxt1--HLs-65" edge="1">
          <mxGeometry relative="1" as="geometry" />
        </mxCell>
        <mxCell id="oOxEvFH_zBwJxt1--HLs-68" value="cost" style="ellipse;whiteSpace=wrap;html=1;align=center;dashed=1;" parent="1" vertex="1">
          <mxGeometry x="385" y="1220" width="100" height="40" as="geometry" />
        </mxCell>
        <mxCell id="oOxEvFH_zBwJxt1--HLs-75" style="edgeStyle=orthogonalEdgeStyle;rounded=0;orthogonalLoop=1;jettySize=auto;html=1;entryX=0.5;entryY=1;entryDx=0;entryDy=0;" parent="1" source="oOxEvFH_zBwJxt1--HLs-69" target="oOxEvFH_zBwJxt1--HLs-65" edge="1">
          <mxGeometry relative="1" as="geometry" />
        </mxCell>
        <mxCell id="oOxEvFH_zBwJxt1--HLs-69" value="cart_id" style="ellipse;whiteSpace=wrap;html=1;align=center;fontStyle=4;" parent="1" vertex="1">
          <mxGeometry x="385" y="1170" width="100" height="40" as="geometry" />
        </mxCell>
        <mxCell id="oOxEvFH_zBwJxt1--HLs-85" value="email" style="ellipse;whiteSpace=wrap;html=1;align=center;" parent="1" vertex="1">
          <mxGeometry x="-10" y="1340" width="100" height="40" as="geometry" />
        </mxCell>
        <mxCell id="oOxEvFH_zBwJxt1--HLs-91" value="" style="edgeStyle=entityRelationEdgeStyle;fontSize=12;html=1;endArrow=ERmany;entryX=1;entryY=0.5;entryDx=0;entryDy=0;exitX=0;exitY=0.5;exitDx=0;exitDy=0;" parent="1" source="oOxEvFH_zBwJxt1--HLs-31" target="oOxEvFH_zBwJxt1--HLs-12" edge="1">
          <mxGeometry width="100" height="100" relative="1" as="geometry">
            <mxPoint x="520" y="990" as="sourcePoint" />
            <mxPoint x="620" y="890" as="targetPoint" />
          </mxGeometry>
        </mxCell>
        <mxCell id="oOxEvFH_zBwJxt1--HLs-100" value="" style="fontSize=12;html=1;endArrow=ERone;endFill=1;entryX=1;entryY=0.5;entryDx=0;entryDy=0;exitX=0;exitY=0.5;exitDx=0;exitDy=0;" parent="1" source="oOxEvFH_zBwJxt1--HLs-62" target="oOxEvFH_zBwJxt1--HLs-39" edge="1">
          <mxGeometry width="100" height="100" relative="1" as="geometry">
            <mxPoint x="280" y="970" as="sourcePoint" />
            <mxPoint x="330" y="1100" as="targetPoint" />
          </mxGeometry>
        </mxCell>
        <mxCell id="oOxEvFH_zBwJxt1--HLs-104" value="quantity" style="ellipse;whiteSpace=wrap;html=1;align=center;" parent="1" vertex="1">
          <mxGeometry x="400" y="890" width="100" height="40" as="geometry" />
        </mxCell>
        <mxCell id="oOxEvFH_zBwJxt1--HLs-108" value="" style="endArrow=none;html=1;rounded=0;entryX=1;entryY=1;entryDx=0;entryDy=0;exitX=0;exitY=0;exitDx=0;exitDy=0;" parent="1" source="oOxEvFH_zBwJxt1--HLs-117" target="oOxEvFH_zBwJxt1--HLs-104" edge="1">
          <mxGeometry relative="1" as="geometry">
            <mxPoint x="425" y="890" as="sourcePoint" />
            <mxPoint x="650" y="940" as="targetPoint" />
          </mxGeometry>
        </mxCell>
        <mxCell id="oOxEvFH_zBwJxt1--HLs-109" value="supplier_id" style="ellipse;whiteSpace=wrap;html=1;align=center;fontStyle=4;" parent="1" vertex="1">
          <mxGeometry x="50" y="675" width="100" height="40" as="geometry" />
        </mxCell>
        <mxCell id="oOxEvFH_zBwJxt1--HLs-110" value="name" style="ellipse;whiteSpace=wrap;html=1;align=center;" parent="1" vertex="1">
          <mxGeometry x="50" y="725" width="100" height="40" as="geometry" />
        </mxCell>
        <mxCell id="oOxEvFH_zBwJxt1--HLs-111" value="address" style="ellipse;whiteSpace=wrap;html=1;align=center;" parent="1" vertex="1">
          <mxGeometry x="50" y="775" width="100" height="40" as="geometry" />
        </mxCell>
        <mxCell id="oOxEvFH_zBwJxt1--HLs-112" value="phone" style="ellipse;whiteSpace=wrap;html=1;align=center;" parent="1" vertex="1">
          <mxGeometry x="50" y="825" width="100" height="40" as="geometry" />
        </mxCell>
        <mxCell id="oOxEvFH_zBwJxt1--HLs-113" value="" style="endArrow=none;html=1;rounded=0;exitX=1;exitY=0.5;exitDx=0;exitDy=0;entryX=0;entryY=0.5;entryDx=0;entryDy=0;" parent="1" source="oOxEvFH_zBwJxt1--HLs-110" target="oOxEvFH_zBwJxt1--HLs-2" edge="1">
          <mxGeometry relative="1" as="geometry">
            <mxPoint x="190" y="679.5" as="sourcePoint" />
            <mxPoint x="350" y="679.5" as="targetPoint" />
          </mxGeometry>
        </mxCell>
        <mxCell id="oOxEvFH_zBwJxt1--HLs-114" value="" style="endArrow=none;html=1;rounded=0;exitX=1;exitY=0.5;exitDx=0;exitDy=0;entryX=0;entryY=0.5;entryDx=0;entryDy=0;" parent="1" source="oOxEvFH_zBwJxt1--HLs-109" target="oOxEvFH_zBwJxt1--HLs-2" edge="1">
          <mxGeometry relative="1" as="geometry">
            <mxPoint x="490" y="790" as="sourcePoint" />
            <mxPoint x="650" y="790" as="targetPoint" />
          </mxGeometry>
        </mxCell>
        <mxCell id="oOxEvFH_zBwJxt1--HLs-115" value="" style="endArrow=none;html=1;rounded=0;exitX=1;exitY=0.5;exitDx=0;exitDy=0;entryX=0;entryY=0.5;entryDx=0;entryDy=0;" parent="1" source="oOxEvFH_zBwJxt1--HLs-111" target="oOxEvFH_zBwJxt1--HLs-2" edge="1">
          <mxGeometry relative="1" as="geometry">
            <mxPoint x="490" y="790" as="sourcePoint" />
            <mxPoint x="650" y="790" as="targetPoint" />
          </mxGeometry>
        </mxCell>
        <mxCell id="oOxEvFH_zBwJxt1--HLs-116" value="" style="endArrow=none;html=1;rounded=0;exitX=1;exitY=0.5;exitDx=0;exitDy=0;entryX=0;entryY=0.5;entryDx=0;entryDy=0;" parent="1" source="oOxEvFH_zBwJxt1--HLs-112" target="oOxEvFH_zBwJxt1--HLs-2" edge="1">
          <mxGeometry relative="1" as="geometry">
            <mxPoint x="490" y="790" as="sourcePoint" />
            <mxPoint x="650" y="790" as="targetPoint" />
          </mxGeometry>
        </mxCell>
        <mxCell id="oOxEvFH_zBwJxt1--HLs-117" value="cart_item" style="shape=rhombus;perimeter=rhombusPerimeter;whiteSpace=wrap;html=1;align=center;" parent="1" vertex="1">
          <mxGeometry x="490" y="920" width="120" height="60" as="geometry" />
        </mxCell>
        <mxCell id="oOxEvFH_zBwJxt1--HLs-120" value="" style="fontSize=12;html=1;endArrow=ERmany;entryX=0.5;entryY=0;entryDx=0;entryDy=0;exitX=0.5;exitY=1;exitDx=0;exitDy=0;noJump=0;" parent="1" source="oOxEvFH_zBwJxt1--HLs-117" target="oOxEvFH_zBwJxt1--HLs-65" edge="1">
          <mxGeometry width="100" height="100" relative="1" as="geometry">
            <mxPoint x="520" y="1010" as="sourcePoint" />
            <mxPoint x="620" y="910" as="targetPoint" />
            <Array as="points">
              <mxPoint x="550" y="1010" />
            </Array>
          </mxGeometry>
        </mxCell>
        <mxCell id="oOxEvFH_zBwJxt1--HLs-122" value="" style="edgeStyle=orthogonalEdgeStyle;fontSize=12;html=1;endArrow=ERmany;entryX=0.5;entryY=1;entryDx=0;entryDy=0;exitX=0.5;exitY=0;exitDx=0;exitDy=0;" parent="1" source="oOxEvFH_zBwJxt1--HLs-117" target="oOxEvFH_zBwJxt1--HLs-12" edge="1">
          <mxGeometry width="100" height="100" relative="1" as="geometry">
            <mxPoint x="520" y="1010" as="sourcePoint" />
            <mxPoint x="475" y="910" as="targetPoint" />
          </mxGeometry>
        </mxCell>
        <mxCell id="oOxEvFH_zBwJxt1--HLs-123" value="payment" style="whiteSpace=wrap;html=1;align=center;" parent="1" vertex="1">
          <mxGeometry x="180" y="905" width="100" height="40" as="geometry" />
        </mxCell>
        <mxCell id="oOxEvFH_zBwJxt1--HLs-131" value="payment_id" style="ellipse;whiteSpace=wrap;html=1;align=center;fontStyle=4;" parent="1" vertex="1">
          <mxGeometry x="-20" y="920" width="100" height="40" as="geometry" />
        </mxCell>
        <mxCell id="oOxEvFH_zBwJxt1--HLs-132" value="create" style="shape=rhombus;perimeter=rhombusPerimeter;whiteSpace=wrap;html=1;align=center;" parent="1" vertex="1">
          <mxGeometry x="660" y="1070" width="120" height="60" as="geometry" />
        </mxCell>
        <mxCell id="oOxEvFH_zBwJxt1--HLs-136" value="&lt;span&gt;payment_type&lt;/span&gt;" style="ellipse;whiteSpace=wrap;html=1;align=center;fontStyle=0;" parent="1" vertex="1">
          <mxGeometry x="-20" y="970" width="100" height="40" as="geometry" />
        </mxCell>
        <mxCell id="oOxEvFH_zBwJxt1--HLs-137" value="" style="endArrow=none;html=1;rounded=0;entryX=0;entryY=0.5;entryDx=0;entryDy=0;exitX=1;exitY=0.5;exitDx=0;exitDy=0;" parent="1" source="oOxEvFH_zBwJxt1--HLs-136" target="oOxEvFH_zBwJxt1--HLs-123" edge="1">
          <mxGeometry relative="1" as="geometry">
            <mxPoint x="-150" y="1110" as="sourcePoint" />
            <mxPoint x="-300" y="1020" as="targetPoint" />
          </mxGeometry>
        </mxCell>
        <mxCell id="oOxEvFH_zBwJxt1--HLs-138" value="" style="endArrow=none;html=1;rounded=0;entryX=1;entryY=0.5;entryDx=0;entryDy=0;exitX=0;exitY=0.5;exitDx=0;exitDy=0;" parent="1" source="oOxEvFH_zBwJxt1--HLs-123" target="oOxEvFH_zBwJxt1--HLs-131" edge="1">
          <mxGeometry relative="1" as="geometry">
            <mxPoint x="-110" y="900" as="sourcePoint" />
            <mxPoint x="50" y="900" as="targetPoint" />
          </mxGeometry>
        </mxCell>
        <mxCell id="oOxEvFH_zBwJxt1--HLs-139" value="shipping" style="whiteSpace=wrap;html=1;align=center;" parent="1" vertex="1">
          <mxGeometry x="500" y="1360" width="100" height="40" as="geometry" />
        </mxCell>
        <mxCell id="oOxEvFH_zBwJxt1--HLs-140" value="shipping_id" style="ellipse;whiteSpace=wrap;html=1;align=center;fontStyle=4;" parent="1" vertex="1">
          <mxGeometry x="425" y="1420" width="100" height="40" as="geometry" />
        </mxCell>
        <mxCell id="oOxEvFH_zBwJxt1--HLs-141" value="" style="endArrow=none;html=1;rounded=0;entryX=0.5;entryY=1;entryDx=0;entryDy=0;exitX=1;exitY=0;exitDx=0;exitDy=0;" parent="1" source="oOxEvFH_zBwJxt1--HLs-140" target="oOxEvFH_zBwJxt1--HLs-139" edge="1">
          <mxGeometry relative="1" as="geometry">
            <mxPoint x="400" y="1520" as="sourcePoint" />
            <mxPoint x="450" y="1470" as="targetPoint" />
          </mxGeometry>
        </mxCell>
        <mxCell id="oOxEvFH_zBwJxt1--HLs-142" value="ships" style="shape=rhombus;perimeter=rhombusPerimeter;whiteSpace=wrap;html=1;align=center;" parent="1" vertex="1">
          <mxGeometry x="170" y="1170" width="120" height="60" as="geometry" />
        </mxCell>
        <mxCell id="oOxEvFH_zBwJxt1--HLs-144" value="" style="edgeStyle=orthogonalEdgeStyle;fontSize=12;html=1;endArrow=ERone;endFill=1;exitX=0.5;exitY=1;exitDx=0;exitDy=0;entryX=0.5;entryY=0;entryDx=0;entryDy=0;" parent="1" source="oOxEvFH_zBwJxt1--HLs-142" target="oOxEvFH_zBwJxt1--HLs-139" edge="1">
          <mxGeometry width="100" height="100" relative="1" as="geometry">
            <mxPoint x="520" y="1280" as="sourcePoint" />
            <mxPoint x="350" y="1360" as="targetPoint" />
          </mxGeometry>
        </mxCell>
        <mxCell id="oOxEvFH_zBwJxt1--HLs-146" value="has" style="shape=rhombus;perimeter=rhombusPerimeter;whiteSpace=wrap;html=1;align=center;" parent="1" vertex="1">
          <mxGeometry x="170" y="990" width="120" height="60" as="geometry" />
        </mxCell>
        <mxCell id="oOxEvFH_zBwJxt1--HLs-147" value="" style="edgeStyle=orthogonalEdgeStyle;fontSize=12;html=1;endArrow=ERzeroToMany;endFill=1;exitX=0.5;exitY=0;exitDx=0;exitDy=0;entryX=0.5;entryY=1;entryDx=0;entryDy=0;" parent="1" source="oOxEvFH_zBwJxt1--HLs-146" target="oOxEvFH_zBwJxt1--HLs-123" edge="1">
          <mxGeometry width="100" height="100" relative="1" as="geometry">
            <mxPoint x="-530" y="1110" as="sourcePoint" />
            <mxPoint x="-430" y="1010" as="targetPoint" />
          </mxGeometry>
        </mxCell>
        <mxCell id="oOxEvFH_zBwJxt1--HLs-148" value="" style="edgeStyle=orthogonalEdgeStyle;fontSize=12;html=1;endArrow=ERone;endFill=1;exitX=0.5;exitY=1;exitDx=0;exitDy=0;sketch=0;shadow=0;rounded=1;entryX=0.5;entryY=0;entryDx=0;entryDy=0;" parent="1" source="oOxEvFH_zBwJxt1--HLs-146" target="oOxEvFH_zBwJxt1--HLs-39" edge="1">
          <mxGeometry width="100" height="100" relative="1" as="geometry">
            <mxPoint x="520" y="1280" as="sourcePoint" />
            <mxPoint x="160" y="960" as="targetPoint" />
          </mxGeometry>
        </mxCell>
        <mxCell id="oOxEvFH_zBwJxt1--HLs-159" value="order" style="whiteSpace=wrap;html=1;align=center;" parent="1" vertex="1">
          <mxGeometry x="840" y="1080" width="100" height="40" as="geometry" />
        </mxCell>
        <mxCell id="oOxEvFH_zBwJxt1--HLs-162" value="contains" style="shape=rhombus;perimeter=rhombusPerimeter;whiteSpace=wrap;html=1;align=center;" parent="1" vertex="1">
          <mxGeometry x="830" y="1000" width="120" height="60" as="geometry" />
        </mxCell>
        <mxCell id="oOxEvFH_zBwJxt1--HLs-163" value="" style="edgeStyle=orthogonalEdgeStyle;fontSize=12;html=1;endArrow=ERone;endFill=1;exitX=0.5;exitY=1;exitDx=0;exitDy=0;sketch=0;shadow=0;rounded=1;entryX=0.5;entryY=0;entryDx=0;entryDy=0;" parent="1" source="oOxEvFH_zBwJxt1--HLs-162" target="oOxEvFH_zBwJxt1--HLs-159" edge="1">
          <mxGeometry width="100" height="100" relative="1" as="geometry">
            <mxPoint x="900" y="1080" as="sourcePoint" />
            <mxPoint x="890" y="1083" as="targetPoint" />
          </mxGeometry>
        </mxCell>
        <mxCell id="oOxEvFH_zBwJxt1--HLs-165" value="" style="edgeStyle=orthogonalEdgeStyle;fontSize=12;html=1;endArrow=ERone;endFill=1;sketch=0;shadow=0;rounded=1;exitX=0.5;exitY=0;exitDx=0;exitDy=0;entryX=0.5;entryY=0;entryDx=0;entryDy=0;" parent="1" source="oOxEvFH_zBwJxt1--HLs-162" target="oOxEvFH_zBwJxt1--HLs-123" edge="1">
          <mxGeometry width="100" height="100" relative="1" as="geometry">
            <mxPoint x="890" y="990" as="sourcePoint" />
            <mxPoint x="780" y="920" as="targetPoint" />
            <Array as="points">
              <mxPoint x="890" y="870" />
              <mxPoint x="230" y="870" />
            </Array>
          </mxGeometry>
        </mxCell>
        <mxCell id="oOxEvFH_zBwJxt1--HLs-167" value="" style="edgeStyle=entityRelationEdgeStyle;fontSize=12;html=1;endArrow=ERone;endFill=1;shadow=0;entryX=0;entryY=0.5;entryDx=0;entryDy=0;exitX=1;exitY=0.5;exitDx=0;exitDy=0;" parent="1" source="oOxEvFH_zBwJxt1--HLs-132" target="oOxEvFH_zBwJxt1--HLs-159" edge="1">
          <mxGeometry width="100" height="100" relative="1" as="geometry">
            <mxPoint x="350" y="1160" as="sourcePoint" />
            <mxPoint x="450" y="1060" as="targetPoint" />
          </mxGeometry>
        </mxCell>
        <mxCell id="oOxEvFH_zBwJxt1--HLs-168" value="" style="edgeStyle=entityRelationEdgeStyle;fontSize=12;html=1;endArrow=ERzeroToMany;endFill=1;shadow=0;entryX=1;entryY=0.5;entryDx=0;entryDy=0;exitX=0;exitY=0.5;exitDx=0;exitDy=0;" parent="1" source="oOxEvFH_zBwJxt1--HLs-132" target="oOxEvFH_zBwJxt1--HLs-65" edge="1">
          <mxGeometry width="100" height="100" relative="1" as="geometry">
            <mxPoint x="770" y="1330" as="sourcePoint" />
            <mxPoint x="870" y="1230" as="targetPoint" />
          </mxGeometry>
        </mxCell>
        <mxCell id="oOxEvFH_zBwJxt1--HLs-169" value="contains" style="shape=rhombus;perimeter=rhombusPerimeter;whiteSpace=wrap;html=1;align=center;" parent="1" vertex="1">
          <mxGeometry x="700" y="1250" width="120" height="60" as="geometry" />
        </mxCell>
        <mxCell id="oOxEvFH_zBwJxt1--HLs-170" value="order_id" style="ellipse;whiteSpace=wrap;html=1;align=center;fontStyle=4;" parent="1" vertex="1">
          <mxGeometry x="970" y="1050" width="100" height="40" as="geometry" />
        </mxCell>
        <mxCell id="oOxEvFH_zBwJxt1--HLs-171" value="" style="endArrow=none;html=1;rounded=0;shadow=0;exitX=1;exitY=0.5;exitDx=0;exitDy=0;entryX=0;entryY=0.5;entryDx=0;entryDy=0;" parent="1" source="oOxEvFH_zBwJxt1--HLs-159" target="oOxEvFH_zBwJxt1--HLs-170" edge="1">
          <mxGeometry relative="1" as="geometry">
            <mxPoint x="320" y="1110" as="sourcePoint" />
            <mxPoint x="480" y="1110" as="targetPoint" />
          </mxGeometry>
        </mxCell>
        <mxCell id="oOxEvFH_zBwJxt1--HLs-172" value="" style="edgeStyle=orthogonalEdgeStyle;fontSize=12;html=1;endArrow=ERone;endFill=1;shadow=0;entryX=1;entryY=0.5;entryDx=0;entryDy=0;exitX=0.5;exitY=1;exitDx=0;exitDy=0;" parent="1" source="oOxEvFH_zBwJxt1--HLs-169" target="oOxEvFH_zBwJxt1--HLs-139" edge="1">
          <mxGeometry width="100" height="100" relative="1" as="geometry">
            <mxPoint x="430" y="1160" as="sourcePoint" />
            <mxPoint x="530" y="1060" as="targetPoint" />
          </mxGeometry>
        </mxCell>
        <mxCell id="oOxEvFH_zBwJxt1--HLs-173" value="" style="edgeStyle=orthogonalEdgeStyle;fontSize=12;html=1;endArrow=ERone;endFill=1;shadow=0;entryX=0.5;entryY=1;entryDx=0;entryDy=0;exitX=0.5;exitY=0;exitDx=0;exitDy=0;" parent="1" source="oOxEvFH_zBwJxt1--HLs-169" target="oOxEvFH_zBwJxt1--HLs-159" edge="1">
          <mxGeometry width="100" height="100" relative="1" as="geometry">
            <mxPoint x="430" y="1160" as="sourcePoint" />
            <mxPoint x="530" y="1060" as="targetPoint" />
          </mxGeometry>
        </mxCell>
        <mxCell id="oOxEvFH_zBwJxt1--HLs-174" value="" style="endArrow=none;html=1;rounded=0;shadow=0;exitX=1;exitY=0.5;exitDx=0;exitDy=0;entryX=0;entryY=0.5;entryDx=0;entryDy=0;" parent="1" source="oOxEvFH_zBwJxt1--HLs-52" target="oOxEvFH_zBwJxt1--HLs-39" edge="1">
          <mxGeometry relative="1" as="geometry">
            <mxPoint x="400" y="1120" as="sourcePoint" />
            <mxPoint x="560" y="1120" as="targetPoint" />
          </mxGeometry>
        </mxCell>
        <mxCell id="oOxEvFH_zBwJxt1--HLs-176" value="" style="endArrow=none;html=1;rounded=0;shadow=0;exitX=1;exitY=0.5;exitDx=0;exitDy=0;entryX=0;entryY=0.5;entryDx=0;entryDy=0;" parent="1" source="oOxEvFH_zBwJxt1--HLs-54" target="oOxEvFH_zBwJxt1--HLs-39" edge="1">
          <mxGeometry relative="1" as="geometry">
            <mxPoint x="120" y="1010" as="sourcePoint" />
            <mxPoint x="130" y="1090" as="targetPoint" />
          </mxGeometry>
        </mxCell>
        <mxCell id="oOxEvFH_zBwJxt1--HLs-177" value="" style="endArrow=none;html=1;rounded=0;shadow=0;exitX=1;exitY=0.5;exitDx=0;exitDy=0;entryX=0;entryY=0.5;entryDx=0;entryDy=0;" parent="1" source="oOxEvFH_zBwJxt1--HLs-56" target="oOxEvFH_zBwJxt1--HLs-39" edge="1">
          <mxGeometry relative="1" as="geometry">
            <mxPoint x="130" y="1020" as="sourcePoint" />
            <mxPoint x="190" y="1120" as="targetPoint" />
          </mxGeometry>
        </mxCell>
        <mxCell id="oOxEvFH_zBwJxt1--HLs-178" value="" style="endArrow=none;html=1;rounded=0;shadow=0;exitX=1;exitY=0.5;exitDx=0;exitDy=0;entryX=0;entryY=0.5;entryDx=0;entryDy=0;" parent="1" source="oOxEvFH_zBwJxt1--HLs-59" target="oOxEvFH_zBwJxt1--HLs-39" edge="1">
          <mxGeometry relative="1" as="geometry">
            <mxPoint x="140" y="1030" as="sourcePoint" />
            <mxPoint x="200" y="1130" as="targetPoint" />
          </mxGeometry>
        </mxCell>
        <mxCell id="oOxEvFH_zBwJxt1--HLs-179" value="" style="endArrow=none;html=1;rounded=0;shadow=0;exitX=1;exitY=0.5;exitDx=0;exitDy=0;entryX=0;entryY=0.5;entryDx=0;entryDy=0;" parent="1" source="oOxEvFH_zBwJxt1--HLs-50" target="oOxEvFH_zBwJxt1--HLs-39" edge="1">
          <mxGeometry relative="1" as="geometry">
            <mxPoint x="100" y="1190" as="sourcePoint" />
            <mxPoint x="140" y="1130" as="targetPoint" />
          </mxGeometry>
        </mxCell>
        <mxCell id="oOxEvFH_zBwJxt1--HLs-180" value="" style="endArrow=none;html=1;rounded=0;shadow=0;exitX=1;exitY=0.5;exitDx=0;exitDy=0;entryX=0;entryY=0.5;entryDx=0;entryDy=0;" parent="1" source="oOxEvFH_zBwJxt1--HLs-85" target="oOxEvFH_zBwJxt1--HLs-39" edge="1">
          <mxGeometry relative="1" as="geometry">
            <mxPoint x="160" y="1050" as="sourcePoint" />
            <mxPoint x="220" y="1150" as="targetPoint" />
          </mxGeometry>
        </mxCell>
        <mxCell id="oOxEvFH_zBwJxt1--HLs-181" value="" style="endArrow=none;html=1;rounded=0;entryX=1;entryY=1;entryDx=0;entryDy=0;exitX=0.5;exitY=0;exitDx=0;exitDy=0;" parent="1" source="oOxEvFH_zBwJxt1--HLs-12" target="oOxEvFH_zBwJxt1--HLs-24" edge="1">
          <mxGeometry relative="1" as="geometry">
            <mxPoint x="190" y="935" as="sourcePoint" />
            <mxPoint x="90" y="950" as="targetPoint" />
          </mxGeometry>
        </mxCell>
        <mxCell id="oOxEvFH_zBwJxt1--HLs-182" value="" style="endArrow=none;html=1;rounded=0;entryX=0.5;entryY=1;entryDx=0;entryDy=0;exitX=0.5;exitY=0;exitDx=0;exitDy=0;" parent="1" source="oOxEvFH_zBwJxt1--HLs-12" target="17tg35nrNF-7oLQtFdMf-4" edge="1">
          <mxGeometry relative="1" as="geometry">
            <mxPoint x="200" y="945" as="sourcePoint" />
            <mxPoint x="565.3553390593274" y="574.1421356237308" as="targetPoint" />
          </mxGeometry>
        </mxCell>
        <mxCell id="oOxEvFH_zBwJxt1--HLs-183" value="" style="endArrow=none;html=1;rounded=0;exitX=0.5;exitY=0;exitDx=0;exitDy=0;" parent="1" source="oOxEvFH_zBwJxt1--HLs-12" target="oOxEvFH_zBwJxt1--HLs-25" edge="1">
          <mxGeometry relative="1" as="geometry">
            <mxPoint x="210" y="955" as="sourcePoint" />
            <mxPoint x="110" y="970" as="targetPoint" />
          </mxGeometry>
        </mxCell>
        <mxCell id="oOxEvFH_zBwJxt1--HLs-184" value="" style="endArrow=none;html=1;rounded=0;entryX=0.5;entryY=1;entryDx=0;entryDy=0;exitX=0.5;exitY=0;exitDx=0;exitDy=0;" parent="1" source="oOxEvFH_zBwJxt1--HLs-26" target="oOxEvFH_zBwJxt1--HLs-35" edge="1">
          <mxGeometry relative="1" as="geometry">
            <mxPoint x="220" y="965" as="sourcePoint" />
            <mxPoint x="120" y="980" as="targetPoint" />
          </mxGeometry>
        </mxCell>
        <mxCell id="oOxEvFH_zBwJxt1--HLs-185" value="" style="fontSize=12;html=1;endArrow=ERzeroToMany;endFill=1;shadow=0;entryX=0.5;entryY=1;entryDx=0;entryDy=0;exitX=0.5;exitY=0;exitDx=0;exitDy=0;" parent="1" source="oOxEvFH_zBwJxt1--HLs-142" target="oOxEvFH_zBwJxt1--HLs-39" edge="1">
          <mxGeometry width="100" height="100" relative="1" as="geometry">
            <mxPoint x="410" y="1080" as="sourcePoint" />
            <mxPoint x="510" y="980" as="targetPoint" />
          </mxGeometry>
        </mxCell>
        <mxCell id="fRMK5i2vllKmALMpkC2B-3" value="" style="endArrow=none;html=1;rounded=0;entryX=0.55;entryY=0.75;entryDx=0;entryDy=0;entryPerimeter=0;exitX=0.5;exitY=0;exitDx=0;exitDy=0;" parent="1" source="oOxEvFH_zBwJxt1--HLs-12" target="fRMK5i2vllKmALMpkC2B-17" edge="1">
          <mxGeometry relative="1" as="geometry">
            <mxPoint x="510" y="946" as="sourcePoint" />
            <mxPoint x="435.35533905932743" y="945.8578643762692" as="targetPoint" />
          </mxGeometry>
        </mxCell>
        <mxCell id="fRMK5i2vllKmALMpkC2B-8" value="quantity" style="ellipse;whiteSpace=wrap;html=1;align=center;" parent="1" vertex="1">
          <mxGeometry x="765" y="675" width="100" height="40" as="geometry" />
        </mxCell>
        <mxCell id="fRMK5i2vllKmALMpkC2B-11" value="" style="endArrow=none;html=1;rounded=0;entryX=0;entryY=1;entryDx=0;entryDy=0;exitX=1;exitY=0;exitDx=0;exitDy=0;" parent="1" source="oOxEvFH_zBwJxt1--HLs-31" target="fRMK5i2vllKmALMpkC2B-8" edge="1">
          <mxGeometry relative="1" as="geometry">
            <mxPoint x="920" y="500" as="sourcePoint" />
            <mxPoint x="960" y="740" as="targetPoint" />
          </mxGeometry>
        </mxCell>
        <mxCell id="fRMK5i2vllKmALMpkC2B-15" value="inventory_id" style="ellipse;whiteSpace=wrap;html=1;align=center;fontStyle=4;" parent="1" vertex="1">
          <mxGeometry x="720" y="630" width="100" height="40" as="geometry" />
        </mxCell>
        <mxCell id="fRMK5i2vllKmALMpkC2B-16" value="" style="endArrow=none;html=1;rounded=0;entryX=0;entryY=1;entryDx=0;entryDy=0;exitX=1;exitY=0;exitDx=0;exitDy=0;" parent="1" source="oOxEvFH_zBwJxt1--HLs-31" target="fRMK5i2vllKmALMpkC2B-15" edge="1">
          <mxGeometry relative="1" as="geometry">
            <mxPoint x="920" y="500" as="sourcePoint" />
            <mxPoint x="984.6446609406726" y="454.14213562373106" as="targetPoint" />
          </mxGeometry>
        </mxCell>
        <mxCell id="fRMK5i2vllKmALMpkC2B-17" value="size" style="ellipse;whiteSpace=wrap;html=1;align=center;" parent="1" vertex="1">
          <mxGeometry x="390" y="685" width="100" height="40" as="geometry" />
        </mxCell>
        <mxCell id="17tg35nrNF-7oLQtFdMf-1" value="size" style="ellipse;whiteSpace=wrap;html=1;align=center;" vertex="1" parent="1">
          <mxGeometry x="960" y="715" width="100" height="40" as="geometry" />
        </mxCell>
        <mxCell id="17tg35nrNF-7oLQtFdMf-2" value="" style="endArrow=none;html=1;rounded=0;exitX=1;exitY=0.25;exitDx=0;exitDy=0;" edge="1" parent="1" source="oOxEvFH_zBwJxt1--HLs-26" target="17tg35nrNF-7oLQtFdMf-1">
          <mxGeometry relative="1" as="geometry">
            <mxPoint x="600" y="760" as="sourcePoint" />
            <mxPoint x="575.3553390593274" y="584.1421356237308" as="targetPoint" />
          </mxGeometry>
        </mxCell>
        <mxCell id="17tg35nrNF-7oLQtFdMf-3" value="" style="edgeStyle=entityRelationEdgeStyle;fontSize=12;html=1;endArrow=ERmany;entryX=0;entryY=0.5;entryDx=0;entryDy=0;exitX=1;exitY=0.5;exitDx=0;exitDy=0;" edge="1" parent="1" source="oOxEvFH_zBwJxt1--HLs-31" target="oOxEvFH_zBwJxt1--HLs-26">
          <mxGeometry width="100" height="100" relative="1" as="geometry">
            <mxPoint x="530" y="780" as="sourcePoint" />
            <mxPoint x="630" y="680" as="targetPoint" />
          </mxGeometry>
        </mxCell>
        <mxCell id="17tg35nrNF-7oLQtFdMf-4" value="goods_id" style="ellipse;whiteSpace=wrap;html=1;align=center;fontStyle=4;" vertex="1" parent="1">
          <mxGeometry x="510" y="540" width="100" height="40" as="geometry" />
        </mxCell>
      </root>
    </mxGraphModel>
  </diagram>
</mxfile>
